{
	"asset":{
		"generator":"Khronos glTF Blender I/O v4.4.55",
		"version":"2.0"
	},
	"extensionsUsed":[
		"EXT_texture_webp"
	],
	"extensionsRequired":[
		"EXT_texture_webp"
	],
	"scene":0,
	"scenes":[
		{
			"name":"Scene",
			"nodes":[
				0
			]
		}
	],
	"nodes":[
		{
			"mesh":0,
			"name":"retopo",
			"translation":[
				0.06686270236968994,
				-0.014625309966504574,
				-0.008322954177856445
			]
		}
	],
	"materials":[
		{
			"emissiveFactor":[
				1,
				1,
				1
			],
			"emissiveTexture":{
				"index":0
			},
			"name":"baked",
			"pbrMetallicRoughness":{
				"baseColorTexture":{
					"index":1
				},
				"metallicRoughnessTexture":{
					"index":2
				}
			}
		}
	],
	"meshes":[
		{
			"name":"Cube.060",
			"primitives":[
				{
					"attributes":{
						"POSITION":0,
						"TEXCOORD_0":1,
						"TEXCOORD_1":2
					},
					"indices":3,
					"material":0
				}
			]
		}
	],
	"textures":[
		{
			"extensions":{
				"EXT_texture_webp":{
					"source":0
				}
			},
			"sampler":0
		},
		{
			"extensions":{
				"EXT_texture_webp":{
					"source":0
				}
			},
			"sampler":0
		},
		{
			"extensions":{
				"EXT_texture_webp":{
					"source":1
				}
			},
			"sampler":0
		}
	],
	"images":[
		{
			"mimeType":"image/webp",
			"name":"retopoBed_Baked",
			"uri":"texture/retopoBed_Baked.webp"
		},
		{
			"mimeType":"image/webp",
			"name":"retopoBed_Baked",
			"uri":"texture/retopoBed_Baked-1.webp"
		}
	],
	"accessors":[
		{
			"bufferView":0,
			"componentType":5126,
			"count":62528,
			"max":[
				1.68313729763031,
				2.514625310897827,
				1.7123554944992065
			],
			"min":[
				-1.81686270236969,
				0.01458171010017395,
				-1.5034844875335693
			],
			"type":"VEC3"
		},
		{
			"bufferView":1,
			"componentType":5126,
			"count":62528,
			"type":"VEC2"
		},
		{
			"bufferView":2,
			"componentType":5126,
			"count":62528,
			"type":"VEC2"
		},
		{
			"bufferView":3,
			"componentType":5123,
			"count":94344,
			"type":"SCALAR"
		}
	],
	"bufferViews":[
		{
			"buffer":0,
			"byteLength":750336,
			"byteOffset":0,
			"target":34962
		},
		{
			"buffer":0,
			"byteLength":500224,
			"byteOffset":750336,
			"target":34962
		},
		{
			"buffer":0,
			"byteLength":500224,
			"byteOffset":1250560,
			"target":34962
		},
		{
			"buffer":0,
			"byteLength":188688,
			"byteOffset":1750784,
			"target":34963
		}
	],
	"samplers":[
		{
			"magFilter":9729,
			"minFilter":9987
		}
	],
	"buffers":[
		{
			"byteLength":1939472,
			"uri":"test.bin"
		}
	]
}
